<?xml version="1.0" encoding="UTF-8" standalone="no"?>
<!-- Created with Inkscape (http://www.inkscape.org/) -->

<svg
   xmlns:dc="http://purl.org/dc/elements/1.1/"
   xmlns:cc="http://creativecommons.org/ns#"
   xmlns:rdf="http://www.w3.org/1999/02/22-rdf-syntax-ns#"
   xmlns:svg="http://www.w3.org/2000/svg"
   xmlns="http://www.w3.org/2000/svg"
   xmlns:sodipodi="http://sodipodi.sourceforge.net/DTD/sodipodi-0.dtd"
   xmlns:inkscape="http://www.inkscape.org/namespaces/inkscape"
   width="724"
   height="724"
   viewBox="0 0 724.00001 724.00001"
   id="svg2"
   version="1.1"
   inkscape:version="0.91 r13725"
   sodipodi:docname="drawing.svg">
  <defs
     id="defs4">
    <inkscape:path-effect
       effect="curvestitching"
       id="path-effect4447"
       is_visible="true"
       count="5"
       startpoint_edge_variation="0;1"
       startpoint_spacing_variation="0;1"
       endpoint_edge_variation="0;1"
       endpoint_spacing_variation="0;1"
       strokepath="m 105.52304,462.8721 403.16271,0"
       prop_scale="1"
       scale_y_rel="false" />
    <inkscape:path-effect
       effect="sketch"
       id="path-effect4445"
       is_visible="true"
       nbiter_approxstrokes="2"
       strokelength="1"
       strokelength_rdm="0.1;1"
       strokeoverlap="0.3"
       strokeoverlap_rdm="0.3;1"
       ends_tolerance="0.1;1"
       parallel_offset="5;1"
       tremble_size="5;1"
       tremble_frequency="1"
       nbtangents="5"
       tgt_places_rdmness="1;1"
       tgtscale="10"
       tgtlength="100"
       tgtlength_rdm="0.3;1" />
    <inkscape:path-effect
       effect="bend_path"
       id="path-effect4443"
       is_visible="false"
       bendpath="m 105.52304,462.8721 403.16271,0"
       prop_scale="1"
       scale_y_rel="false"
       vertical="false" />
  </defs>
  <sodipodi:namedview
     id="base"
     pagecolor="#ffffff"
     bordercolor="#666666"
     borderopacity="1.0"
     inkscape:pageopacity="0.0"
     inkscape:pageshadow="2"
     inkscape:zoom="0.35"
     inkscape:cx="171.20467"
     inkscape:cy="335.58635"
     inkscape:document-units="px"
     inkscape:current-layer="layer1"
     showgrid="false"
     inkscape:window-width="1920"
     inkscape:window-height="1025"
     inkscape:window-x="0"
     inkscape:window-y="0"
     inkscape:window-maximized="1"
     units="px" />
  <metadata
     id="metadata7">
    <rdf:RDF>
      <cc:Work
         rdf:about="">
        <dc:format>image/svg+xml</dc:format>
        <dc:type
           rdf:resource="http://purl.org/dc/dcmitype/StillImage" />
        <dc:title></dc:title>
      </cc:Work>
    </rdf:RDF>
  </metadata>
  <g
     inkscape:label="Layer 1"
     inkscape:groupmode="layer"
     id="layer1"
     transform="translate(0,-328.36218)">
    <g
       id="g4147"
       transform="matrix(1.5668094,0,0,1.4930451,-148.48524,87.643523)"
       style="fill:#2b1100" />
    <ellipse
       style="fill:#000000;fill-opacity:1;stroke:none;stroke-width:10;stroke-miterlimit:4;stroke-dasharray:none;stroke-opacity:1"
       id="path4451"
       cx="362"
       cy="690.36218"
       rx="340.95157"
       ry="362.26105" />
    <path
       style="fill:#ffffff"
       d="m 230.60947,538.01671 c -1.16766,8.33424 -0.82612,7.90927 2.8532,-3.55033 2.29879,-7.15982 3.63399,-15.14805 2.96711,-17.75162 -1.28352,-5.011 -3.02861,1.37591 -5.82031,21.30195 z m 116.0914,7.06771 c -7.42461,7.42461 -8.21024,12.04437 -0.99814,5.86942 1.57229,-1.34618 4.591,-3.74266 6.70826,-5.32549 6.43735,-4.81247 7.37151,-17.11195 1.78003,-23.43642 -4.27962,-4.84065 -4.64644,-4.92704 -3.15644,-0.7434 4.50043,12.63636 4.01426,15.28792 -4.33371,23.63589 z m -24.17515,136.12871 c 6.69928,2.87877 7.49513,2.78149 7.49513,-0.9161 0,-1.80564 -1.6864,-2.95224 -3.74756,-2.54799 -2.06116,0.40426 -4.81266,0.89145 -6.11445,1.08246 -1.30178,0.1911 -0.23669,1.26284 2.36688,2.38163 z m 118.48452,21.52907 c 2.43711,3.94333 9.09864,-3.79222 7.30065,-8.47769 -0.81971,-2.13614 -2.56299,-3.22095 -3.87397,-2.41074 -3.15478,1.94976 -3.01165,-0.32557 0.41855,-6.65419 3.35147,-6.18334 4.88662,-25.28839 2.032,-25.28839 -1.10572,0 -2.56953,5.05921 -3.2529,11.24269 -0.68338,6.18349 -1.99436,14.85555 -2.91331,19.27129 -1.13353,5.4469 -0.86004,7.52748 0.85052,6.47032 1.38673,-0.85705 3.19033,-0.4758 4.008,0.84722 0.81767,1.32302 -0.23668,2.40549 -2.34302,2.40549 -2.17396,0 -3.13658,1.1215 -2.22652,2.594 z m 8.31904,13.00198 c 3.92704,4.73181 6.09276,2.39531 7.82586,-8.44288 0.83726,-5.236 2.33966,-9.51998 3.33868,-9.51998 0.99901,0 1.78528,-5.76865 1.74718,-12.81919 -0.0392,-7.26756 0.95584,-12.64886 2.2977,-12.42613 1.30179,0.21617 2.36689,-1.90719 2.36689,-4.71858 0,-2.8114 0.79882,-5.91793 1.77516,-6.90341 0.97634,-0.98547 1.77515,-3.75892 1.77515,-6.16319 0,-2.40427 0.97564,-6.22087 2.1681,-8.48133 1.19244,-2.26046 6.64822,-17.9562 12.12393,-34.87941 5.47574,-16.92321 11.42324,-33.12847 13.21668,-36.01169 5.90254,-9.48922 4.43135,-10.16966 -18.63288,-8.61791 -23.06149,1.55157 -31.43177,5.25883 -29.40159,13.02222 0.5871,2.24509 -0.47416,6.28296 -2.35836,8.97303 -1.88419,2.69007 -2.76487,5.96047 -1.95705,7.26756 0.80784,1.3071 0.12328,6.09747 -1.52124,10.64528 -2.32647,6.43375 -2.35937,8.8994 -0.14821,11.11056 3.24756,3.24755 3.86772,7.54223 0.81683,5.65668 -2.03484,-1.2576 -1.13191,8.54777 1.39725,15.17342 0.74538,1.95269 1.1246,5.41426 0.8427,7.69238 -0.28189,2.27812 0.61951,4.14204 2.00313,4.14204 1.3836,0 2.51566,1.03167 2.51566,2.2926 0,1.26093 -1.48991,1.72087 -3.31092,1.02209 -1.821,-0.69879 -4.01405,-0.13281 -4.87344,1.25772 -0.85941,1.39053 -0.5217,2.52824 0.75044,2.52824 1.27214,0 4.14851,0.70437 6.39192,1.56524 3.57695,1.37261 3.8735,0.47005 2.40951,-7.33363 -1.17284,-6.25182 -0.89113,-8.41785 0.94708,-7.28177 1.43909,0.88939 2.44113,6.05345 2.22694,11.47567 -0.21428,5.42221 0.35427,11.98878 1.26346,14.59235 1.47869,4.23438 1.37213,4.29679 -1.01012,0.59172 -3.86049,-6.00416 -7.92177,-5.25093 -4.64999,0.86242 1.63276,3.05089 2.05584,9.15525 1.08379,15.63748 -1.12262,7.48602 -0.82264,10.15596 1.01352,9.02115 1.43443,-0.88651 0.40985,2.30183 -2.27682,7.08523 -3.77322,6.71792 -4.26407,9.44509 -2.15694,11.98402 z M 282.6832,783.77806 c 0.86785,0.86786 2.11047,1.57793 2.76136,1.57793 0.65089,0 0.51084,-0.6726 -0.31121,-1.49464 -0.82205,-0.82206 -0.47553,-3.39889 0.77005,-5.72627 1.50789,-2.81752 1.4178,-4.51393 -0.26961,-5.0764 -1.39386,-0.46462 -2.9129,-4.91835 -3.37563,-9.89717 -0.8667,-9.32523 -3.51977,-15.00319 -3.51977,-7.53282 0,2.7875 -1.2113,3.73322 -3.6051,2.81463 -4.03046,-1.54662 -0.90542,6.3734 3.61782,9.1689 1.2948,0.80023 2.35417,4.40988 2.35417,8.02144 0,3.61156 0.71005,7.27656 1.57792,8.1444 z m 48.12091,1.57793 c 0.41899,2.6809 0.82129,2.52889 1.64287,-0.62069 0.63474,-2.43348 2.24593,-3.47667 3.86748,-2.50426 1.7238,1.03369 1.60438,0.21645 -0.3144,-2.15171 -2.66689,-3.29148 -2.4706,-3.65546 1.42231,-2.63744 2.48391,0.64957 6.14583,-0.44862 8.1376,-2.44038 1.99177,-1.99184 4.3695,-2.8733 5.28385,-1.95895 0.91436,0.91435 1.30742,0.19795 0.87349,-1.59201 -0.43393,-1.78995 0.71213,-3.79921 2.54681,-4.46501 2.31208,-0.83906 2.87964,-0.0219 1.84944,2.66275 -0.81747,2.13031 -0.45465,3.87329 0.80628,3.87329 1.26092,0 2.2926,-3.1953 2.2926,-7.10065 0,-3.90536 -1.0651,-7.10066 -2.36688,-7.10066 -1.30179,0 -2.36688,1.0651 -2.36688,2.36689 0,1.30178 -1.12796,2.36688 -2.50658,2.36688 -1.37861,0 -1.85584,-1.05291 -1.0605,-2.33978 0.83897,-1.35748 -0.14601,-1.72882 -2.34614,-0.88455 -2.08571,0.80036 -4.40437,4.51598 -5.15256,8.25696 -1.57197,7.85988 -2.42845,8.17536 -8.14643,3.00064 -3.87999,-3.51134 -4.18447,-3.46622 -3.99371,0.59173 0.11356,2.41606 -0.0703,5.45795 -0.40851,6.75974 -0.33827,1.30179 -0.36533,3.96452 -0.0602,5.91721 z m 128.53406,28.8695 c 1.68723,1.05708 3.1577,0.28922 3.6346,-1.89792 1.12652,-5.16636 -1.82067,-7.39734 -4.35504,-3.29666 -1.35019,2.18468 -1.09006,4.06031 0.72044,5.19458 z M 323.70916,784.67622 c 0,4.05118 -3.47305,3.8673 -6.98975,-0.37006 -2.32392,-2.80014 -1.94912,-3.34992 2.07708,-3.04663 2.70197,0.20353 4.91267,1.74105 4.91267,3.41669 z m -33.67744,31.04358 c -2.77778,2.7778 -1.64199,2.84585 9.70673,0.58155 0.48484,-0.0967 -0.4444,-1.77352 -2.06498,-3.7262 -2.39759,-2.88893 -2.28152,-3.55033 0.62308,-3.55033 5.25138,0 16.13901,-6.11778 14.2498,-8.007 -0.89302,-0.893 2.25093,-1.14309 6.98656,-0.55572 6.50963,0.80739 8.31404,0.29607 7.39618,-2.09586 -0.70067,-1.82587 -3.51934,-2.74574 -6.66546,-2.17525 -3.03205,0.54982 -6.75704,-0.58469 -8.39338,-2.55635 -2.03465,-2.45162 -2.12264,-3.54488 -0.28529,-3.54488 1.46118,0 2.6567,1.19551 2.6567,2.65668 0,1.83554 1.09737,1.74596 3.55032,-0.2898 2.34195,-1.94364 3.55032,-2.06756 3.55032,-0.3641 0,1.42032 1.68695,1.93507 3.74878,1.14387 3.01831,-1.15824 3.1336,-1.82849 0.59172,-3.4398 -2.28967,-1.45142 -2.35813,-2.01122 -0.2492,-2.0375 2.23245,-0.0279 2.28951,-1.39339 0.24562,-5.87922 -1.46423,-3.21366 -3.70977,-5.19559 -4.99008,-4.40432 -1.28032,0.79127 -1.81289,-0.0409 -1.18351,-1.84937 0.62938,-1.80843 2.63238,-3.03604 4.45111,-2.72802 1.81873,0.30803 5.43608,-2.61791 8.03855,-6.50211 2.90615,-4.33745 6.78643,-7.06399 10.05724,-7.06898 3.7453,-0.005 5.32549,-1.41142 5.32549,-4.74058 0,-4.57175 -2.31647,-5.79484 -9.17142,-4.84255 -2.43938,0.33886 -2.89366,-1.51703 -1.81428,-7.41194 0.79196,-4.32522 0.46676,-9.40427 -0.72268,-11.28681 -2.54511,-4.02818 0.9773,-11.9799 5.28273,-11.92571 1.79654,0.0226 1.98731,0.68867 0.50845,1.77516 -3.80758,2.79737 -3.898,7.64659 -0.21134,11.33325 3.77679,3.77681 7.16155,4.64295 5.09838,1.30465 -0.72025,-1.16536 0.28199,-2.72958 2.22719,-3.47602 1.9452,-0.74645 3.53673,-2.51856 3.53673,-3.93802 0,-1.41947 -1.06187,-1.92459 -2.35972,-1.12247 -1.56078,0.96459 -1.58062,-0.5909 -0.0586,-4.59408 1.59165,-4.18635 1.5096,-6.05247 -0.2661,-6.05247 -1.56625,0 -2.16901,-3.4112 -1.54588,-8.74877 0.60219,-5.15821 -0.24447,-10.25797 -2.063,-12.42613 -1.6964,-2.02255 -4.78121,-5.80757 -6.85514,-8.41114 -2.07394,-2.60357 -3.14379,-3.47908 -2.37746,-1.94558 0.76634,1.53353 -0.75233,3.46921 -3.3748,4.30155 -2.62248,0.83234 -4.76813,2.47325 -4.76813,3.64644 0,1.17322 -1.60973,1.5154 -3.57717,0.76041 -2.58296,-0.99115 -3.16135,-0.28907 -2.08106,2.5261 1.32793,3.46053 2.08289,3.51433 6.7161,0.47854 4.84316,-3.17337 5.18758,-3.05134 4.771,1.69022 -0.24696,2.81077 0.71864,6.70815 2.14576,8.66082 1.42712,1.95268 0.21665,1.52134 -2.68993,-0.95856 -6.61712,-5.64571 -6.78704,-3.06547 -0.38977,5.91868 4.0145,5.63784 4.24073,6.8743 1.25773,6.8743 -2.26065,0 -3.1216,1.34366 -2.27482,3.55032 0.90521,2.35895 -0.11253,3.57568 -3.03289,3.6256 -3.90212,0.0669 -3.98047,0.39879 -0.69828,2.9586 4.99386,3.89475 6.93999,9.72725 4.54094,13.60898 -1.17235,1.8969 -0.57766,5.89801 1.46321,9.84463 2.08978,4.04117 2.46317,6.64888 0.95202,6.64888 -1.36743,0 -3.49862,-2.66274 -4.73596,-5.9172 -1.23734,-3.25447 -2.92258,-5.91722 -3.74497,-5.91722 -0.82239,0 -0.92569,1.48428 -0.22955,3.29838 1.78099,4.64119 -9.09465,14.64961 -11.56881,10.64631 -1.35736,-2.19623 -2.24494,-1.8292 -3.37635,1.3962 -1.82792,5.21102 -9.48292,6.98801 -9.48292,2.20132 0,-1.83751 -1.10824,-3.34091 -2.46276,-3.34091 -2.98143,0 -2.41589,18.91656 0.68683,22.97345 2.56103,3.34856 0.0926,8.49788 -3.12138,6.5115 -1.21184,-0.74895 -2.20334,0.57513 -2.20334,2.94239 0,2.36724 -2.13019,5.63444 -4.73376,7.26039 -5.49554,3.43203 -6.432,8.80808 -1.18344,6.794 4.38989,-1.68456 4.86768,5.69247 0.64233,9.9178 z m 34.17584,13.33349 c 4.20438,4.76697 7.48758,4.46676 12.57009,-1.14934 3.35741,-3.7099 4.81472,-4.11011 6.46423,-1.77516 1.60414,2.2707 1.86935,2.13851 1.07483,-0.53579 -0.58013,-1.95268 0.4083,-5.23673 2.19653,-7.29787 2.77528,-3.1989 2.73007,-3.7476 -0.30885,-3.7476 -1.95809,0 -3.56016,1.32043 -3.56016,2.93428 0,1.80949 -1.89298,2.43921 -4.93837,1.64283 -3.86657,-1.01113 -4.77396,-0.3209 -4.18084,3.18019 0.75542,4.45907 -0.37293,5.65505 -5.33532,5.65505 -1.44107,0 -2.01194,-1.58486 -1.26862,-3.52191 0.78101,-2.03532 0.13859,-3.28415 -1.52194,-2.95861 -1.58038,0.30982 -2.72549,-1.3006 -2.54468,-3.57873 0.1808,-2.27812 -0.61802,-4.14204 -1.77516,-4.14204 -3.04654,0 -2.58184,5.67595 0.73636,8.99415 1.56214,1.56215 2.0527,2.84026 1.09012,2.84026 -0.96257,0 -0.37677,1.55713 1.30178,3.46029 z m -13.604,8.23214 c 0.78254,1.26618 2.9802,1.70448 4.88371,0.97403 1.90353,-0.73043 2.92788,-2.19059 2.27635,-3.24478 -0.65153,-1.0542 0.0573,-2.33069 1.57523,-2.83666 1.95728,-0.65243 2.05934,-2.17166 0.35097,-5.22435 -2.25875,-4.03617 -2.66634,-3.95456 -6.54088,1.30953 -2.73191,3.71165 -4.51668,4.61137 -5.26723,2.65529 -1.5834,-4.12669 -7.84137,-3.71374 -7.84137,0.51745 0,2.26967 1.36687,2.95149 3.9386,1.96465 2.85978,-1.09741 3.40792,-0.65274 2.00117,1.62343 -1.24506,2.01456 -1.01935,2.56739 0.63163,1.54706 1.41297,-0.87327 3.20929,-0.55182 3.99182,0.71435 z m 1.34647,12.56812 c -0.0414,0.97634 0.98982,1.77516 2.2916,1.77516 1.30179,0 2.36689,-1.50888 2.36689,-3.35309 0,-1.84418 1.33137,-3.82857 2.9586,-4.40971 1.62723,-0.58117 2.14878,-1.92355 1.15899,-2.98306 -1.71231,-1.83296 -8.61724,5.22511 -8.77608,8.9707 z m 64.60618,43.39766 c -1.48342,3.14333 -1.76971,5.71516 -0.63621,5.71516 2.89492,0 7.3651,-8.93855 5.15369,-10.30528 -1.0012,-0.61878 -3.03406,1.44677 -4.51748,4.59012 z M 439.8319,431.59689 c -1.22178,-0.75511 -3.29336,0.51341 -4.6035,2.81891 -2.114,3.72006 -2.34006,3.59248 -2.00867,-1.13366 0.37335,-5.3245 8.83358,-8.02428 8.83358,-2.81891 0,1.3786 -0.99963,1.88875 -2.22141,1.13366 z m -5.62668,19.12782 c 0.86838,2.263 -0.45916,3.11476 -4.35239,2.79255 -5.02251,-0.41568 -5.56602,-1.52952 -5.25499,-10.76952 0.37268,-11.0715 3.25418,-17.3063 3.25418,-7.04117 0,3.3946 1.06509,6.83026 2.36688,7.63482 1.30178,0.80455 2.36688,0.272 2.36688,-1.18345 0,-1.45544 1.15791,-1.93063 2.5731,-1.05598 1.73071,1.06963 1.79126,2.37214 0.18498,3.97843 -1.31349,1.31349 -1.82587,3.85343 -1.13864,5.64432 z m 50.45199,-1.74217 c 0,5.55737 -8.62149,8.26161 -10.52496,3.30129 -0.98256,-2.56057 -0.27101,-3.13321 2.5488,-2.05114 3.27366,1.25621 3.42384,0.91301 0.92048,-2.10335 -2.51926,-3.03554 -2.1985,-3.60451 2.03212,-3.60451 3.34194,0 5.02356,1.4922 5.02356,4.45771 z m -22.97498,8.04476 c -1.65083,-0.63349 -6.14699,-0.0553 -9.99146,1.28493 -5.74224,2.00174 -6.75857,1.83367 -5.6936,-0.94158 0.71301,-1.85806 3.84516,-3.51143 6.96035,-3.67415 3.11517,-0.16272 6.99535,-0.44322 8.62258,-0.62335 1.62724,-0.18011 2.90982,-3.32837 2.85044,-6.99613 -0.0925,-5.70599 0.29628,-6.11555 2.6935,-2.83713 3.45801,4.72907 -0.81766,15.56187 -5.44181,13.78741 z m -27.21992,0.97869 c 7.07907,1.90358 7.07907,1.90358 -0.35733,5.57848 -7.82265,3.86577 -15.7205,3.58708 -15.7205,-0.55471 0,-1.41495 2.43847,-1.83791 5.77216,-1.00121 3.17469,0.79679 6.43283,0.37971 7.24033,-0.92686 0.83759,-1.35524 -1.38745,-2.49348 -5.18043,-2.65013 -3.65673,-0.15101 -4.89017,-0.74134 -2.74096,-1.31185 2.14922,-0.57051 7.09324,-0.18068 10.98673,0.86628 z m -169.92522,7.76308 c 0,1.18834 -2.73042,5.14903 -6.06759,8.80153 -5.85944,6.4131 -5.94035,6.43144 -2.35858,0.53476 2.03996,-3.35837 3.12679,-6.68836 2.41519,-7.39996 -0.71161,-0.71161 0.34976,-1.92452 2.35858,-2.69539 2.00882,-0.77085 3.6524,-0.42927 3.6524,0.75906 z m -7.21216,18.99277 c 0.0555,5.05528 -3.74263,10.43876 -5.43402,7.70204 -0.77191,-1.24899 0.12618,-4.29172 1.99575,-6.76163 2.61409,-3.45348 3.40829,-3.6707 3.43827,-0.94041 z m 137.35449,42.01217 c 0.0199,1.62724 -2.09396,5.0888 -4.69753,7.69237 -3.43916,3.43916 -4.73377,3.81576 -4.73377,1.37702 0,-1.8462 -0.63302,-5.30777 -1.40671,-7.69237 -1.03532,-3.19093 -0.80923,-3.50112 0.85634,-1.17486 1.24469,1.73842 3.09,3.16076 4.1007,3.16076 1.0107,0 2.73922,-1.42234 3.84117,-3.16076 1.49837,-2.36379 2.01266,-2.41476 2.0398,-0.20216 z m -136.95768,22.56841 c 2.09151,8.74139 2.88294,15.89345 1.75872,15.89345 -1.12421,0 -2.04402,-1.66051 -2.04402,-3.69002 0,-2.0295 -0.95349,-3.10072 -2.11887,-2.38048 -2.9896,1.84768 -4.91564,-4.32215 -3.28992,-10.53888 1.19359,-4.56433 0.68236,-5.0139 -4.00862,-3.52504 -3.6698,1.16476 -4.86255,0.8746 -3.75716,-0.91396 0.89074,-1.44126 3.07622,-2.62046 4.85662,-2.62046 1.7804,0 3.58885,-1.82657 4.01878,-4.05903 0.42994,-2.23247 2.49294,3.09301 4.58447,11.83442 z m 59.12454,59.05552 c -1.27195,3.34545 -3.29485,6.68969 -4.49536,7.43164 -3.53442,2.1844 -5.39912,-1.35957 -2.53267,-4.81344 1.95109,-2.35093 1.87044,-4.09902 -0.31035,-6.7267 -2.08921,-2.51736 -2.16042,-3.55033 -0.24472,-3.55033 1.68051,0 2.21683,-2.46039 1.41882,-6.50893 -1.28096,-6.49872 -1.279,-6.49975 1.25626,-0.65854 1.39656,3.21772 3.59253,6.50138 4.87992,7.29703 1.53344,0.94774 1.54312,3.54434 0.0281,7.52927 z m -30.60133,83.88866 c 0.55356,4.69199 -0.36959,6.81456 -3.20482,7.36877 -4.08881,0.79922 -10.05449,-7.16676 -7.37431,-9.84694 2.5975,-2.5975 5.79365,-1.61571 4.02999,1.23794 -1.04634,1.69303 -0.64927,2.09011 1.04376,1.04375 1.50292,-0.92886 2.73258,-4.28872 2.73258,-7.46636 0,-3.75143 1.34667,-5.77751 3.84015,-5.77751 3.08263,0 3.27943,0.6756 0.99763,3.425 -1.56339,1.88375 -2.49263,6.39065 -2.06498,10.01535 z m 14.71783,9.589 c 0.95322,2.90274 0.82394,6.90233 -0.28728,8.88798 -1.48587,2.65509 -3.08951,0.1382 -6.06154,-9.51353 -4.65777,-15.12622 -4.9095,-17.67003 -1.74856,-17.67003 1.26094,0 1.65019,1.86392 0.86502,4.14204 -1.16395,3.37714 -0.71786,3.26786 2.41558,-0.59172 3.73722,-4.60327 3.83269,-4.53805 3.4634,2.36688 -0.20886,3.90537 0.40016,9.47563 1.35338,12.37838 z m -19.8575,29.23566 c 0,3.59149 -4.12169,2.44857 -5.66399,-1.57061 -2.54956,-6.64403 -1.53095,-12.82427 2.11366,-12.82427 2.20909,0 3.55033,-2.23538 3.55033,-5.9172 0,-3.74209 1.33567,-5.91722 3.63359,-5.91722 2.9499,0 3.13649,0.92887 0.99167,4.93649 -1.45279,2.71505 -2.10937,5.46902 -1.45848,6.11991 0.6509,0.6509 2.52009,-1.30424 4.15376,-4.34475 2.97033,-5.5282 2.97033,-5.5282 4.84727,1.45346 2.33179,8.67356 1.22677,9.87379 -6.04164,6.56206 -4.59335,-2.09286 -5.99675,-1.91021 -7.08354,0.9219 -0.87381,2.27712 -0.38117,2.92981 1.3867,1.83721 1.85697,-1.14768 2.2302,-0.36093 1.15632,2.43753 -0.87211,2.27271 -1.58565,5.11017 -1.58565,6.30549 z m 129.75146,33.3491 c -0.416,2.82706 -1.84444,5.49747 -3.17434,5.93425 -2.70232,0.88753 -11.59839,-8.49789 -9.77917,-10.31709 0.63781,-0.63783 0.11759,-4.14896 -1.15607,-7.80256 -1.8367,-5.26877 -1.30713,-8.52468 2.56015,-15.74019 5.68189,-10.60116 5.98632,-12.71774 1.82923,-12.71774 -1.67565,0 -3.21143,-2.39647 -3.41285,-5.32548 -0.34243,-4.97967 -0.16035,-5.04871 2.80374,-1.06326 2.92296,3.93014 3.14278,3.78995 2.82114,-1.79928 -0.21779,-3.78443 -1.46027,-5.63581 -3.30742,-4.92825 -1.62724,0.62332 -2.95861,-0.0123 -2.95861,-1.41254 0,-1.44741 -1.78714,-1.86545 -4.14205,-0.96892 -3.32109,1.26434 -3.55564,0.98615 -1.18344,-1.40359 1.62723,-1.63928 2.95861,-4.86425 2.95861,-7.16661 0,-2.65343 1.23665,-3.71154 3.37763,-2.88999 2.4663,0.94642 3.03043,-0.0315 2.09083,-3.6246 -0.73575,-2.81347 -0.15499,-4.92073 1.35613,-4.92073 1.45362,0 2.71779,-1.86392 2.80929,-4.14204 0.14226,-3.5419 0.4611,-3.45617 2.20053,0.59172 2.93864,6.83869 2.771,8.79162 -0.59172,6.89309 -2.2132,-1.24951 -2.29111,-0.94519 -0.30924,1.2079 1.56841,1.70392 2.15078,7.30164 1.42737,13.71973 -0.87888,7.79739 -0.45976,10.37038 1.49268,9.1637 1.70591,-1.05431 2.71468,0.1332 2.71468,3.19569 0,2.68041 -1.33138,4.89076 -2.95861,4.9097 -1.97239,0.0241 -1.77516,0.80105 0.59172,2.33065 2.57983,1.6672 2.70339,2.30429 0.45204,2.33064 -1.85913,0.0217 -2.373,1.20978 -1.28484,2.97046 3.66118,5.92391 3.28793,25.35368 -0.45944,23.91567 -1.89284,-0.72635 -3.44152,-0.14158 -3.44152,1.29947 0,1.44107 1.67172,2.62011 3.71494,2.62011 2.46709,0 3.46089,1.72655 2.95861,5.14009 z m 0.97239,48.63232 c -1.04113,10.48887 -2.45869,15.45196 -2.72532,9.54172 -0.10277,-2.27813 -1.25195,-4.14205 -2.55374,-4.14205 -1.30178,0 -2.35057,-1.86391 -2.33063,-4.14205 0.031,-3.53978 0.36984,-3.62583 2.33063,-0.59171 1.37861,2.13325 2.30884,2.42518 2.33063,0.73141 0.0199,-1.55041 -1.04043,-3.48436 -2.35638,-4.29764 -1.31594,-0.81331 -2.1601,-4.53032 -1.87591,-8.26002 0.2842,-3.72971 1.26089,-6.32138 2.17042,-5.75927 0.90954,0.56214 1.09279,3.16701 0.40722,5.78864 -0.90009,3.44181 -0.31026,4.40732 2.12247,3.47378 2.63385,-1.01069 3.17512,0.66015 2.4806,7.65719 z m 0.18333,19.43725 c -1.24658,4.76689 -7.82927,8.82213 -7.82927,4.82321 0,-1.26093 1.0651,-2.29261 2.36688,-2.29261 1.30179,0 2.36688,-1.59765 2.36688,-3.55032 0,-1.95268 0.96539,-3.55033 2.1453,-3.55033 1.17991,0 1.60751,2.05651 0.95021,4.57005 z m 4.00522,78.26003 c 0,1.74169 0.45043,2.71629 1.00095,2.16575 0.88408,-0.88408 4.0422,-171.79406 3.66279,-198.22132 -0.0882,-6.14663 0.78495,-9.6899 2.17608,-8.83016 1.50861,0.93239 1.55062,-1.25878 0.11979,-6.24779 -1.21202,-4.22606 -1.63279,-9.48246 -0.93503,-11.6809 0.69774,-2.1984 0.14283,-4.69288 -1.23314,-5.54328 -1.37598,-0.8504 -1.83614,-2.6232 -1.02259,-3.93957 0.81355,-1.31634 1.35631,-10.0298 1.20613,-19.36322 -0.15018,-9.33343 -0.70173,-47.00412 -1.22568,-83.71264 -1.13464,-79.49413 -0.72283,-77.91168 -16.40741,-63.04735 -10.56002,10.00776 -20.05009,11.74716 -30.90412,5.66428 -8.62427,-4.83326 -20.34361,-7.44923 -20.34361,-4.54106 0,1.12125 1.54277,2.03865 3.42838,2.03865 5.69431,0 16.03488,11.1107 14.74503,15.84318 -0.64088,2.35143 -1.83367,7.27043 -2.65063,10.93112 -1.84293,8.25787 -21.32971,18.16538 -35.64129,18.12073 -10.66408,-0.0333 -21.9043,-6.95433 -18.9796,-11.68659 1.42632,-2.30784 2.25957,-2.25013 3.85449,0.26695 1.36154,2.1488 2.04674,2.27862 2.07101,0.39239 0.0199,-1.55041 -1.02885,-3.47719 -2.33064,-4.28174 -3.41811,-2.1125 -2.92016,-7.58616 1.54642,-16.99878 3.96432,-8.35419 9.50061,-11.76015 24.4893,-15.06596 6.32257,-1.39446 4.15945,-1.76332 -9.13556,-1.55778 -11.87481,0.18359 -17.79427,1.24557 -18.59657,3.33634 -0.64731,1.68686 -2.09651,3.06703 -3.22044,3.06703 -1.12393,0 -7.88751,2.6731 -15.03019,5.94024 -12.98667,5.94023 -12.98667,5.94023 -12.49627,24.84094 0.26971,10.3954 1.35207,18.90564 2.40524,18.91205 1.05317,0.006 1.30207,-0.98019 0.55311,-2.19202 -0.74895,-1.21184 -0.3327,-2.83931 0.925,-3.61662 1.25771,-0.7773 3.45871,0.77658 4.89113,3.45307 1.43242,2.67649 3.78062,4.1394 5.21823,3.25091 1.57707,-0.97468 1.94397,-0.53157 0.925,1.11715 -1.13204,1.83168 0.63319,2.73258 5.35427,2.73258 3.8737,0 7.66439,1.33138 8.42377,2.95861 1.0692,2.29114 1.71231,2.23072 2.85064,-0.26781 1.12387,-2.46681 1.88904,-2.54833 3.25001,-0.34623 2.0361,3.29448 19.50538,5.12767 21.36008,2.24148 0.67528,-1.05083 4.09657,-2.29479 7.60288,-2.76435 3.50629,-0.46955 7.05204,-1.53069 7.87942,-2.35807 0.82739,-0.82739 2.99786,-0.93123 4.82328,-0.23076 1.8329,0.70336 3.34249,-0.16447 3.37155,-1.93823 0.0289,-1.76651 1.98744,-5.72763 4.35222,-8.80246 3.05226,-3.96878 4.02416,-8.43191 3.35019,-15.38475 -0.89405,-9.22326 -0.73649,-9.5182 2.70345,-5.06034 3.15376,4.087 3.97742,4.24869 6.02846,1.18344 3.30555,-4.94021 3.30361,15.2807 -0.002,21.45755 -2.52995,4.72724 0.81904,6.76531 3.6336,2.21128 1.89274,-3.06253 5.91721,-3.06253 5.91721,0 0,1.30178 -1.59765,2.36688 -3.55033,2.36688 -1.95268,0 -3.55033,0.81384 -3.55033,1.80854 0,7.78185 -62.18461,15.08247 -80.47401,9.44783 -30.7163,-9.46313 -46.03518,-34.75001 -39.34658,-64.94936 5.54005,-25.01354 58.94979,-49.37932 105.02758,-47.91408 11.45655,0.36432 17.1599,1.2389 17.1599,2.6314 0,0.88927 3.15839,1.52706 7.01865,1.41733 3.86026,-0.10976 8.65321,1.15699 10.65098,2.81499 2.96487,2.46062 3.63901,2.41766 3.66856,-0.23386 0.0298,-2.67066 0.41486,-2.65024 2.16488,0.11474 1.81408,2.86617 3.02062,2.77873 8.16457,-0.59171 6.9865,-4.57773 9.52684,-5.05207 7.23999,-1.35188 -1.15996,1.87683 -0.29529,1.90007 3.09942,0.0833 2.58951,-1.38587 5.30993,-1.91802 6.04538,-1.18257 0.73544,0.73544 2.73941,0.46164 4.45324,-0.60844 1.71385,-1.0701 4.54088,-2.16131 6.28228,-2.42494 1.74142,-0.26362 5.20298,-2.32257 7.69237,-4.57543 2.52698,-2.28689 4.52617,-2.91453 4.52617,-1.42099 0,1.95263 1.75795,1.99307 6.50893,0.14973 3.57991,-1.38898 10.23677,-2.84151 14.79302,-3.22785 4.55625,-0.38634 10.41428,-1.27225 13.01785,-1.96868 2.60358,-0.69643 6.80126,-1.34774 9.32819,-1.44734 4.548,-0.17926 4.548,-0.21537 0,-3.57207 -2.85083,-2.10411 -5.44775,-2.55322 -6.84296,-1.18344 -2.9511,2.8973 -6.03555,2.81587 -6.03555,-0.15934 0,-1.30179 1.71159,-2.36688 3.80355,-2.36688 2.40847,0 3.30387,-1.30216 2.44116,-3.55033 -0.93494,-2.43647 0.14327,-3.55033 3.43678,-3.55033 2.63956,0 4.14091,-1.06509 3.33636,-2.36687 -0.80455,-1.30179 0.3752,-2.36688 2.62169,-2.36688 2.24647,0 3.42878,-0.6557 2.62742,-1.4571 -0.8014,-0.80141 -4.64127,-0.34709 -8.53304,1.00959 -5.72684,1.99638 -7.66777,1.7363 -10.18008,-1.36413 -2.28717,-2.82255 -2.32546,-3.36298 -0.14556,-2.05334 1.62723,0.97761 2.9413,0.91578 2.92237,-0.13738 -0.0516,-2.72731 -4.61751,-9.46015 -4.6613,-6.8735 -0.0199,1.1781 -2.16643,0.2142 -4.77,-2.142 -4.25705,-3.85258 -4.73377,-3.88952 -4.73377,-0.36684 0,2.15444 1.33137,4.00125 2.9586,4.10402 2.20121,0.13902 2.23479,0.48128 0.13123,1.33694 -4.76561,1.93849 -13.84473,-3.98921 -9.91852,-6.47573 2.33407,-1.47819 1.3633,-2.08667 -3.37025,-2.11247 -3.82351,-0.0208 -6.02893,0.96644 -5.19022,2.32348 0.96843,1.56691 -0.61686,1.57069 -4.71867,0.0112 -8.19352,-3.11517 -22.86239,-2.03957 -21.48262,1.57523 0.58,1.51949 -0.57442,3.3878 -2.56537,4.15181 -2.33374,0.89554 -4.0546,-0.2732 -4.84336,-3.28944 -1.92832,-7.37388 -167.02685,-6.2867 -168.36011,1.10866 -1.37229,7.61184 -4.37396,9.05082 -3.85805,1.84953 0.2594,-3.6208 0.004,-4.70357 -0.56823,-2.40614 -0.57193,2.29743 -1.92949,3.62733 -3.0168,2.95534 -1.08731,-0.672 -1.47612,0.69329 -0.86401,3.03397 0.6121,2.34069 -1.50538,15.92214 -4.7055,30.18102 -6.87654,30.63988 -9.80308,50.38213 -6.14878,41.47916 1.29762,-3.16141 2.95734,-9.552 3.68826,-14.20129 1.45477,-9.25368 2.47758,-11.19285 4.72059,-8.94983 0.81172,0.8117 0.64796,3.38569 -0.3639,5.71996 -1.01187,2.33427 -2.22158,6.90687 -2.68826,10.16133 -0.46668,3.25447 -1.49175,8.57995 -2.27794,11.83442 -0.78618,3.25446 -1.69134,9.1125 -2.01145,13.01785 -3.40262,41.51115 -6.20191,54.73416 -8.5181,40.23701 -1.33938,-8.38316 -1.55109,-7.75721 -1.84849,5.46518 -0.21212,9.43066 0.53622,14.39372 2.031,13.46989 3.78396,-2.33861 2.73047,5.03584 -1.18343,8.28409 -1.95268,1.62058 -3.55033,6.21496 -3.55033,10.20973 0,6.89454 0.17639,7.03001 3.47504,2.66879 3.29662,-4.35851 3.47892,-4.37036 3.55033,-0.2308 0.0415,2.40548 -2.03703,4.91602 -4.63187,5.59458 -2.58892,0.67703 -4.15246,2.12844 -3.47452,3.22537 0.67794,1.09693 3.06243,1.40924 5.29886,0.69402 2.73004,-0.87307 2.24418,0.19082 -1.47852,3.23756 -3.04962,2.49588 -5.32343,6.58914 -5.05293,9.09614 0.83812,7.76742 0.0443,10.81508 -2.42016,9.29195 -3.17352,-1.96135 -2.98508,0.25778 0.49508,5.83041 2.31332,3.7042 2.07672,6.30707 -1.23415,13.57746 -3.59883,7.90269 -3.62482,8.42 -0.21406,4.26096 4.00785,-4.88715 3.69087,13.92963 -0.48844,28.99432 -1.15987,4.18086 -0.52782,5.28532 2.94069,5.13861 2.73827,-0.1158 3.23817,-0.6591 1.31479,-1.42891 -2.53734,-1.01553 -2.5149,-1.95265 0.12307,-5.13862 2.45329,-2.96291 2.90223,-9.28435 1.8736,-26.38196 -0.74403,-12.36696 -0.44133,-23.13753 0.67265,-23.9346 1.11398,-0.79706 1.81097,-3.45981 1.54886,-5.9172 -0.75984,-7.12398 -0.0868,-10.38521 2.14315,-10.38521 1.14103,0 1.57186,7.98823 0.95741,17.75162 -1.08631,17.26103 2.52944,25.83669 4.74024,11.24269 0.76982,-5.08171 1.06379,-4.5072 1.34066,2.62019 0.25509,6.56638 -0.49962,8.80123 -2.6885,7.96128 -1.80801,-0.69379 -3.04314,0.62063 -3.04314,3.23848 0,2.42345 1.35664,4.92686 3.01474,5.56313 1.65811,0.63629 2.90138,0.39638 2.76285,-0.53313 -0.67234,-4.51072 0.65168,-7.23234 4.17641,-8.5849 3.32382,-1.27547 3.62914,-0.22933 2.17117,7.43915 -0.9331,4.90782 -1.92518,10.53968 -2.20461,12.51525 -0.27943,1.97557 -1.27384,4.83099 -2.20978,6.34538 -0.93595,1.5144 -0.54663,3.46733 0.86512,4.33984 1.41178,0.87253 1.90257,3.31754 1.09064,5.43334 -1.03044,2.6853 0.21766,2.25567 4.13324,-1.42284 7.4917,-7.03807 8.84805,-6.66851 8.89092,2.42257 0.0426,9.03325 3.25714,15.48812 5.72478,11.49538 0.89045,-1.44077 0.75731,-2.62054 -0.29586,-2.62125 -1.05316,-6.2e-4 -2.07295,-2.73609 -2.2662,-6.0782 -0.24176,-4.18112 0.63339,-5.69863 2.80568,-4.86506 1.73638,0.66632 3.61259,-0.0601 4.16937,-1.61417 0.55678,-1.55409 1.94809,-1.94693 3.0918,-0.87295 1.16291,1.09201 0.26249,2.96953 -2.04284,4.25965 -5.06239,2.83307 -5.29947,7.61582 -0.572,11.53929 2.6457,2.19567 3.55032,2.23391 3.55032,0.15006 0,-1.53802 1.13449,-2.09523 2.52107,-1.23828 1.67176,1.03319 1.27307,2.93714 -1.18344,5.65156 -2.03748,2.25137 -3.70451,5.12791 -3.70451,6.39228 0,1.26437 -1.26149,3.56034 -2.8033,5.10217 -3.1144,3.1144 -4.46848,12.34474 -1.81097,12.34474 0.93241,0 2.42374,2.39647 3.31407,5.32548 0.89034,2.92902 2.12905,4.11223 2.75269,2.62935 1.42835,-3.39627 18.97604,12.90432 17.87706,16.6065 -0.43393,1.46181 0.0433,1.82561 1.06044,0.80844 1.01716,-1.01718 3.23602,0.58048 4.93079,3.55032 3.04854,5.34213 3.07044,5.3303 2.0549,-1.10921 -0.57106,-3.6211 0.0766,-6.50893 1.45971,-6.50893 1.36741,0 1.92942,-2.12913 1.24891,-4.73141 -0.68051,-2.60229 -0.3515,-5.27885 0.73114,-5.94797 1.08276,-0.6691 1.57424,-4.33128 1.09245,-8.13817 -0.63569,-5.02289 0.20241,-7.12929 3.05519,-7.67867 2.85306,-0.54947 4.02665,-3.50007 4.27935,-10.75904 0.42351,-12.16569 4.05671,-17.16985 11.14086,-15.34482 4.59431,1.18361 4.85211,0.87828 2.09652,-2.48293 -2.37842,-2.90116 -4.53534,-3.30272 -8.87581,-1.65248 -3.63787,1.38311 -5.73387,1.33621 -5.73387,-0.12829 0,-1.26957 0.79883,-2.31729 1.77517,-2.32677 0.97633,-0.0102 3.00632,-2.67289 4.51107,-5.9172 1.50475,-3.24431 1.77103,-5.89875 0.59172,-5.89875 -1.1793,0 -1.87792,-1.19823 -1.55247,-2.66274 0.32545,-1.46451 -0.88791,-3.20034 -2.69635,-3.85738 -1.85091,-0.67248 -2.63274,-0.13432 -1.78875,1.23128 0.82461,1.33426 -0.14754,3.05789 -2.16035,3.83028 -2.12838,0.81671 -3.04449,0.40897 -2.18948,-0.97447 3.27605,-5.30076 3.73663,-14.55382 0.6315,-12.6869 -2.21684,1.33287 -2.16025,0.74368 0.20916,-2.17734 4.56993,-5.63385 6.93185,-4.97625 5.67837,1.58091 -1.40993,7.37557 8.65448,10.96184 10.53901,3.75541 0.65499,-2.5047 2.1349,-3.97056 3.28868,-3.25749 1.15379,0.7131 2.0978,0.0272 2.0978,-1.52415 0,-1.55135 2.39646,-4.95292 5.32548,-7.559 3.63347,-3.23287 4.3808,-5.07731 2.35214,-5.80526 -1.63535,-0.58682 -2.27146,-2.20264 -1.41357,-3.59073 0.85789,-1.38809 -0.40414,-3.95986 -2.80451,-5.71506 -4.21273,-3.08041 -4.20473,-3.19372 0.23011,-3.26322 4.37235,-0.0685 4.38599,-0.19319 0.28221,-2.57973 -3.29481,-1.91608 -5.3566,-1.56259 -8.73886,1.49832 -2.43465,2.20332 -5.81964,3.44828 -7.5222,2.76658 -2.29447,-0.91872 -2.17678,-1.30821 0.45476,-1.50509 4.35545,-0.32583 14.4888,-8.51188 13.84399,-11.18361 -0.25783,-1.0683 0.93128,-4.82338 2.64248,-8.34464 2.53664,-5.21984 2.55408,-7.74741 0.0945,-13.68547 -1.65925,-4.00575 -2.34089,-7.95911 -1.51477,-8.78522 0.82611,-0.82611 1.50203,0.1295 1.50203,2.12358 0,1.99409 2.07124,6.25877 4.60275,9.47707 2.53152,3.2183 5.88402,11.08389 7.45,17.4791 1.56597,6.3952 4.72948,15.40146 7.03001,20.01392 2.30053,4.61245 5.91744,14.73088 8.03757,22.48537 2.12013,7.75453 6.5585,23.685 9.86304,35.40107 15.95703,56.57485 28.228,116.66 26.3869,129.20425 -0.60639,4.13165 0.0565,6.89153 1.65538,6.89153 1.46676,0 3.94504,6.18843 5.50727,13.75206 3.57767,17.32132 3.56007,20.02819 -0.11815,18.16502 -1.62723,-0.82426 -0.8355,0.21866 1.75942,2.31758 4.39715,3.55668 4.86443,3.48813 6.87062,-1.00793 1.18393,-2.65327 3.18535,-4.82413 4.44759,-4.82413 1.26226,0 0.90171,1.67883 -0.8012,3.73072 -2.56602,3.09184 -2.51432,4.09892 0.3019,5.88096 2.81661,1.78228 2.71322,2.15645 -0.60424,2.18649 -2.20129,0.0199 -4.60122,1.00522 -5.33316,2.18953 -1.68753,2.73049 0.89516,9.68113 3.59726,9.68113 1.12166,0 1.4263,-1.59765 0.67699,-3.55033 -0.74931,-1.95267 -0.18334,-3.55032 1.25772,-3.55032 3.31744,0 3.34175,3.69659 0.0646,9.82003 -1.97534,3.69094 -1.70666,5.71307 1.18344,8.90658 2.05643,2.27233 3.73898,5.55655 3.73898,7.29824 z m -86.3141,2.50266 c 2.16902,3.50954 6.49675,1.57237 7.20058,-3.22313 0.34888,-2.37715 -0.45791,-3.3769 -1.97059,-2.44203 -1.59449,0.98545 -2.02434,0.18363 -1.13874,-2.1242 1.60653,-4.18654 -0.24136,-7.04912 -3.32155,-5.14547 -1.12374,0.69452 -0.9377,3.32831 0.41341,5.85288 1.73524,3.24232 1.6961,4.59012 -0.13329,4.59012 -1.42441,0 -1.89682,1.12131 -1.0498,2.49183 z m 22.40818,23.54389 c 0,2.60356 1.12796,4.73376 2.50657,4.73376 1.37861,0 1.8483,-1.0651 1.04376,-2.36689 -0.80456,-1.30178 -0.272,-2.36687 1.18344,-2.36687 1.45543,0 1.98798,-1.0651 1.18343,-2.36689 -2.47366,-4.00249 -5.9172,-2.62506 -5.9172,2.36689 z m 20.06118,9.66519 c -1.28005,8.08642 -1.28005,8.08642 1.75552,-0.1699 1.89965,-5.16679 5.69264,-9.50751 10.13622,-11.59998 3.90536,-1.83899 7.9524,-4.7805 8.99342,-6.53669 1.04103,-1.75618 2.96781,-3.19304 4.28173,-3.19304 1.31393,0 1.61883,1.2461 0.67756,2.76911 -1.22766,1.98639 -0.43086,2.18087 2.81892,0.68805 2.49168,-1.14455 9.05698,-1.90771 14.58957,-1.69587 5.53259,0.21184 10.05925,-0.5969 10.05925,-1.79722 0,-1.20032 -1.51596,-1.60065 -3.3688,-0.88967 -1.92938,0.74039 -4.49327,-0.80833 -6.00048,-3.62459 -8.1137,-15.16057 -40.4543,4.01128 -43.94291,26.0498 z m 54.49563,12.96507 c -11.83441,3.4863 -11.83441,3.4863 -1.18344,2.14129 5.85804,-0.73976 11.66282,-2.35561 12.89952,-3.59077 2.80715,-2.80364 2.6593,-2.78534 -11.71608,1.44948 z m -31.12674,0.44684 c 0.60806,0.97634 5.19759,1.94525 10.19895,2.1533 7.67258,0.31905 8.16885,0.0786 3.17617,-1.53923 -7.78453,-2.52243 -14.76317,-2.84283 -13.37512,-0.61407 z"
       id="path4437"
       inkscape:connector-curvature="0" />
  </g>
</svg>
