<?xml version="1.0" encoding="UTF-8" standalone="no"?>
<!-- Created with Inkscape (http://www.inkscape.org/) -->

<svg
   xmlns:dc="http://purl.org/dc/elements/1.1/"
   xmlns:cc="http://creativecommons.org/ns#"
   xmlns:rdf="http://www.w3.org/1999/02/22-rdf-syntax-ns#"
   xmlns:svg="http://www.w3.org/2000/svg"
   xmlns="http://www.w3.org/2000/svg"
   xmlns:sodipodi="http://sodipodi.sourceforge.net/DTD/sodipodi-0.dtd"
   xmlns:inkscape="http://www.inkscape.org/namespaces/inkscape"
   width="35"
   height="35"
   viewBox="0 0 9.2604164 9.2604169"
   version="1.1"
   id="svg2052"
   inkscape:version="0.92.4 5da689c313, 2019-01-14"
   sodipodi:docname="fb.svg">
  <defs
     id="defs2046" />
  <sodipodi:namedview
     id="base"
     pagecolor="#ffffff"
     bordercolor="#666666"
     borderopacity="1.0"
     inkscape:pageopacity="0.0"
     inkscape:pageshadow="2"
     inkscape:zoom="1.4"
     inkscape:cx="385.99237"
     inkscape:cy="193.34312"
     inkscape:document-units="mm"
     inkscape:current-layer="layer1"
     showgrid="false"
     units="px"
     inkscape:window-width="1920"
     inkscape:window-height="1025"
     inkscape:window-x="0"
     inkscape:window-y="0"
     inkscape:window-maximized="1" />
  <metadata
     id="metadata2049">
    <rdf:RDF>
      <cc:Work
         rdf:about="">
        <dc:format>image/svg+xml</dc:format>
        <dc:type
           rdf:resource="http://purl.org/dc/dcmitype/StillImage" />
        <dc:title></dc:title>
      </cc:Work>
    </rdf:RDF>
  </metadata>
  <g
     inkscape:label="Layer 1"
     inkscape:groupmode="layer"
     id="layer1"
     transform="translate(0,-287.73955)">
    <g
       id="g4586"
       transform="matrix(0.01551051,0,0,0.01551051,1.4599454,289.1995)"
       style="display:inline;fill:#1a1a1a">
      <path
         id="path4554"
         d="M 353.701,0 H 55.087 C 24.665,0 0.002,24.662 0.002,55.085 v 298.616 c 0,30.423 24.662,55.085 55.085,55.085 h 147.275 l 0.251,-146.078 h -37.951 c -4.932,0 -8.935,-3.988 -8.954,-8.92 l -0.182,-47.087 c -0.019,-4.959 3.996,-8.989 8.955,-8.989 h 37.882 v -45.498 c 0,-52.8 32.247,-81.55 79.348,-81.55 h 38.65 c 4.945,0 8.955,4.009 8.955,8.955 v 39.704 c 0,4.944 -4.007,8.952 -8.95,8.955 l -23.719,0.011 c -25.615,0 -30.575,12.172 -30.575,30.035 v 39.389 h 56.285 c 5.363,0 9.524,4.683 8.892,10.009 l -5.581,47.087 c -0.534,4.506 -4.355,7.901 -8.892,7.901 h -50.453 l -0.251,146.078 h 87.631 c 30.422,0 55.084,-24.662 55.084,-55.084 V 55.085 C 408.786,24.662 384.124,0 353.701,0 Z"
         style="fill:#1a1a1a"
         inkscape:connector-curvature="0" />
      <g
         id="g4556"
         style="fill:#1a1a1a" />
      <g
         id="g4558"
         style="fill:#1a1a1a" />
      <g
         id="g4560"
         style="fill:#1a1a1a" />
      <g
         id="g4562"
         style="fill:#1a1a1a" />
      <g
         id="g4564"
         style="fill:#1a1a1a" />
      <g
         id="g4566"
         style="fill:#1a1a1a" />
      <g
         id="g4568"
         style="fill:#1a1a1a" />
      <g
         id="g4570"
         style="fill:#1a1a1a" />
      <g
         id="g4572"
         style="fill:#1a1a1a" />
      <g
         id="g4574"
         style="fill:#1a1a1a" />
      <g
         id="g4576"
         style="fill:#1a1a1a" />
      <g
         id="g4578"
         style="fill:#1a1a1a" />
      <g
         id="g4580"
         style="fill:#1a1a1a" />
      <g
         id="g4582"
         style="fill:#1a1a1a" />
      <g
         id="g4584"
         style="fill:#1a1a1a" />
    </g>
  </g>
</svg>
