<?xml version="1.0" encoding="UTF-8" standalone="no"?>
<!-- Created with Inkscape (http://www.inkscape.org/) -->

<svg
   xmlns:dc="http://purl.org/dc/elements/1.1/"
   xmlns:cc="http://creativecommons.org/ns#"
   xmlns:rdf="http://www.w3.org/1999/02/22-rdf-syntax-ns#"
   xmlns:svg="http://www.w3.org/2000/svg"
   xmlns="http://www.w3.org/2000/svg"
   xmlns:sodipodi="http://sodipodi.sourceforge.net/DTD/sodipodi-0.dtd"
   xmlns:inkscape="http://www.inkscape.org/namespaces/inkscape"
   width="210mm"
   height="297mm"
   viewBox="0 0 100 100"
   version="1.1"
   id="svg8"
   inkscape:version="0.92.4 5da689c313, 2019-01-14"
   sodipodi:docname="heart.svg">
  <defs
     id="defs2" />
  <sodipodi:namedview
     id="base"
     pagecolor="#ffffff"
     bordercolor="#666666"
     borderopacity="1.0"
     inkscape:pageopacity="0.0"
     inkscape:pageshadow="2"
     inkscape:zoom="0.7"
     inkscape:cx="265.21847"
     inkscape:cy="529.52594"
     inkscape:document-units="mm"
     inkscape:current-layer="layer1"
     showgrid="false"
     viewbox-width="100"
     viewbox-height="100"
     inkscape:lockguides="true"
     inkscape:window-width="1920"
     inkscape:window-height="1019"
     inkscape:window-x="0"
     inkscape:window-y="0"
     inkscape:window-maximized="1" />
  <metadata
     id="metadata5">
    <rdf:RDF>
      <cc:Work
         rdf:about="">
        <dc:format>image/svg+xml</dc:format>
        <dc:type
           rdf:resource="http://purl.org/dc/dcmitype/StillImage" />
        <dc:title></dc:title>
      </cc:Work>
    </rdf:RDF>
  </metadata>
  <g
     inkscape:label="Layer 1"
     inkscape:groupmode="layer"
     id="layer1"
     style="display:inline">
    <path
       style="opacity:1;fill:none;fill-opacity:1;fill-rule:nonzero;stroke:#000000;stroke-width:1.24699998;stroke-miterlimit:4;stroke-dasharray:none;stroke-opacity:1"
       d="M 52.255723,4.127912 C 46.036165,4.1340503 40.512721,8.0863088 38.525296,13.952637 36.497997,8.1560953 31.010634,4.2688846 24.844477,4.2612382 16.83314,4.2610741 10.338654,10.725715 10.338903,18.700148 c 0.0033,1.227974 0.163899,2.450516 0.478007,3.638021 0.927592,2.527496 0.434459,1.823741 0.927592,2.527496 1.032356,1.542994 1.308772,2.890684 2.459542,4.05262 l 10.381017,14.26926 14.606344,20.841104 14.020332,-21.127394 9.583396,-14.440977 c 1.166228,-1.224782 2.107724,-2.643587 2.781742,-4.191992 0.498797,-1.332621 0,0 0.805635,-2.485639 0.246859,-1.054602 0.373748,-2.133499 0.378272,-3.216338 C 66.760748,10.592278 60.266656,4.1280337 52.255723,4.127912 Z"
       id="circle825"
       inkscape:connector-curvature="0"
       sodipodi:nodetypes="ccccccccccccccc" />
  </g>
</svg>
