<?xml version="1.0" encoding="UTF-8" standalone="no"?>
<!-- Created with Inkscape (http://www.inkscape.org/) -->

<svg
   xmlns:dc="http://purl.org/dc/elements/1.1/"
   xmlns:cc="http://creativecommons.org/ns#"
   xmlns:rdf="http://www.w3.org/1999/02/22-rdf-syntax-ns#"
   xmlns:svg="http://www.w3.org/2000/svg"
   xmlns="http://www.w3.org/2000/svg"
   xmlns:sodipodi="http://sodipodi.sourceforge.net/DTD/sodipodi-0.dtd"
   xmlns:inkscape="http://www.inkscape.org/namespaces/inkscape"
   width="35"
   height="35"
   viewBox="0 0 9.2604164 9.2604169"
   version="1.1"
   id="svg2052"
   inkscape:version="0.92.4 5da689c313, 2019-01-14"
   sodipodi:docname="insta.svg">
  <defs
     id="defs2046" />
  <sodipodi:namedview
     id="base"
     pagecolor="#ffffff"
     bordercolor="#666666"
     borderopacity="1.0"
     inkscape:pageopacity="0.0"
     inkscape:pageshadow="2"
     inkscape:zoom="1.4"
     inkscape:cx="385.99237"
     inkscape:cy="193.34312"
     inkscape:document-units="mm"
     inkscape:current-layer="layer1"
     showgrid="false"
     units="px"
     inkscape:window-width="1920"
     inkscape:window-height="1025"
     inkscape:window-x="0"
     inkscape:window-y="0"
     inkscape:window-maximized="1" />
  <metadata
     id="metadata2049">
    <rdf:RDF>
      <cc:Work
         rdf:about="">
        <dc:format>image/svg+xml</dc:format>
        <dc:type
           rdf:resource="http://purl.org/dc/dcmitype/StillImage" />
        <dc:title></dc:title>
      </cc:Work>
    </rdf:RDF>
  </metadata>
  <g
     inkscape:label="Layer 1"
     inkscape:groupmode="layer"
     id="layer1"
     transform="translate(0,-287.73955)">
    <g
       id="g4636"
       transform="matrix(0.01238372,0,0,0.01238372,1.459976,289.19953)"
       style="display:inline;fill:#000000">
      <g
         id="g4592"
         style="fill:#000000">
        <g
           id="g4590"
           style="fill:#000000">
          <path
             id="path4588"
             d="M 352,0 H 160 C 71.648,0 0,71.648 0,160 v 192 c 0,88.352 71.648,160 160,160 h 192 c 88.352,0 160,-71.648 160,-160 V 160 C 512,71.648 440.352,0 352,0 Z m 112,352 c 0,61.76 -50.24,112 -112,112 H 160 C 98.24,464 48,413.76 48,352 V 160 C 48,98.24 98.24,48 160,48 h 192 c 61.76,0 112,50.24 112,112 z"
             inkscape:connector-curvature="0"
             style="fill:#000000" />
        </g>
      </g>
      <g
         id="g4598"
         style="fill:#000000">
        <g
           id="g4596"
           style="fill:#000000">
          <path
             id="path4594"
             d="m 256,128 c -70.688,0 -128,57.312 -128,128 0,70.688 57.312,128 128,128 70.688,0 128,-57.312 128,-128 0,-70.688 -57.312,-128 -128,-128 z m 0,208 c -44.096,0 -80,-35.904 -80,-80 0,-44.128 35.904,-80 80,-80 44.096,0 80,35.872 80,80 0,44.096 -35.904,80 -80,80 z"
             inkscape:connector-curvature="0"
             style="fill:#000000" />
        </g>
      </g>
      <g
         id="g4604"
         style="fill:#000000">
        <g
           id="g4602"
           style="fill:#000000">
          <circle
             id="circle4600"
             r="17.056"
             cy="118.4"
             cx="393.60001"
             style="fill:#000000" />
        </g>
      </g>
      <g
         id="g4606"
         style="fill:#000000" />
      <g
         id="g4608"
         style="fill:#000000" />
      <g
         id="g4610"
         style="fill:#000000" />
      <g
         id="g4612"
         style="fill:#000000" />
      <g
         id="g4614"
         style="fill:#000000" />
      <g
         id="g4616"
         style="fill:#000000" />
      <g
         id="g4618"
         style="fill:#000000" />
      <g
         id="g4620"
         style="fill:#000000" />
      <g
         id="g4622"
         style="fill:#000000" />
      <g
         id="g4624"
         style="fill:#000000" />
      <g
         id="g4626"
         style="fill:#000000" />
      <g
         id="g4628"
         style="fill:#000000" />
      <g
         id="g4630"
         style="fill:#000000" />
      <g
         id="g4632"
         style="fill:#000000" />
      <g
         id="g4634"
         style="fill:#000000" />
    </g>
  </g>
</svg>
