<?xml version="1.0" encoding="UTF-8" standalone="no"?>
<!-- Created with Inkscape (http://www.inkscape.org/) -->

<svg
   xmlns:dc="http://purl.org/dc/elements/1.1/"
   xmlns:cc="http://creativecommons.org/ns#"
   xmlns:rdf="http://www.w3.org/1999/02/22-rdf-syntax-ns#"
   xmlns:svg="http://www.w3.org/2000/svg"
   xmlns="http://www.w3.org/2000/svg"
   xmlns:sodipodi="http://sodipodi.sourceforge.net/DTD/sodipodi-0.dtd"
   xmlns:inkscape="http://www.inkscape.org/namespaces/inkscape"
   width="69mm"
   height="85mm"
   viewBox="0 0 69 85"
   version="1.1"
   id="svg8"
   inkscape:version="0.92.4 5da689c313, 2019-01-14"
   sodipodi:docname="spleen-and-ideal.svg">
  <defs
     id="defs2" />
  <sodipodi:namedview
     id="base"
     pagecolor="#ffffff"
     bordercolor="#666666"
     borderopacity="1.0"
     inkscape:pageopacity="0.0"
     inkscape:pageshadow="2"
     inkscape:zoom="2.8"
     inkscape:cx="133.45823"
     inkscape:cy="153.83347"
     inkscape:document-units="px"
     inkscape:current-layer="g827"
     showgrid="false"
     units="mm"
     inkscape:object-nodes="false"
     inkscape:snap-others="false"
     inkscape:snap-nodes="false"
     inkscape:window-width="1920"
     inkscape:window-height="1025"
     inkscape:window-x="0"
     inkscape:window-y="0"
     inkscape:window-maximized="1"
     showguides="false" />
  <metadata
     id="metadata5">
    <rdf:RDF>
      <cc:Work
         rdf:about="">
        <dc:format>image/svg+xml</dc:format>
        <dc:type
           rdf:resource="http://purl.org/dc/dcmitype/StillImage" />
        <dc:title></dc:title>
      </cc:Work>
    </rdf:RDF>
  </metadata>
  <g
     inkscape:label="Picture"
     inkscape:groupmode="layer"
     id="layer1"
     style="display:inline"
     transform="translate(0,-212)" />
  <g
     inkscape:groupmode="layer"
     id="layer4"
     inkscape:label="Building"
     transform="translate(0,-212)" />
  <g
     inkscape:groupmode="layer"
     id="layer2"
     inkscape:label="Star"
     style="display:inline"
     transform="translate(0,-212)" />
  <g
     inkscape:groupmode="layer"
     id="layer3"
     inkscape:label="Person"
     style="display:inline"
     transform="translate(0,-212)">
    <g
       id="g827"
       transform="translate(-27.796031,69.222808)">
      <path
         sodipodi:nodetypes="cccccccsccccccccccccccccccccccccccc"
         inkscape:connector-curvature="0"
         id="path920"
         d="m 47.619263,146.99947 0.188619,15.02441 -8.504391,1.70119 -1.512054,3.49643 9.733256,5.1971 -0.01654,5.37589 c 1.001019,0.60127 1.714267,1.1744 2.799439,2.07464 1.10222,0.66379 -0.129873,-1.44264 -0.805971,-3.45596 -0.20271,-0.60364 0.678998,-0.35146 2.438681,2.96287 0.622416,1.82946 1.03596,1.65089 1.923536,1.01674 l 0.994254,-0.98443 c 0.408562,-0.61429 0.567095,-0.73545 0.569474,-0.56431 l 3.530533,-3.49643 8.882663,3.49643 2.17351,-4.53564 -4.535638,-6.04769 3.590478,-3.40186 -3.401859,-6.99234 -6.520016,1.88981 z m -0.113689,31.67972 -0.0016,0.5085 c 1.300459,0.91285 2.589157,1.77062 2.493388,1.58957 -0.126637,-0.23942 -1.588299,-1.35902 -2.491838,-2.09807 z m -0.0047,1.44591 -0.0016,0.46819 c 3.176871,2.23475 1.855915,0.882 0.0016,-0.46819 z m -0.0041,1.42782 -0.01601,5.16196 2.610694,-2.58589 c -0.03645,-0.0325 -0.06961,-0.066 -0.110072,-0.0971 -0.614212,-0.47247 -0.47225,-1.41734 -2.0314,-2.22054 -0.168701,-0.0869 -0.31768,-0.17326 -0.453202,-0.25838 z"
         style="display:inline;fill:#ffcc00;stroke:#000000;stroke-width:0.13229166;stroke-linecap:butt;stroke-linejoin:miter;stroke-miterlimit:4;stroke-dasharray:none;stroke-opacity:1" />
      <g
         id="g847">
        <path
           style="fill:none;stroke:#000000;stroke-width:0.10583333;stroke-linecap:butt;stroke-linejoin:miter;stroke-miterlimit:4;stroke-dasharray:none;stroke-opacity:1"
           d="m 78.844745,159.2225 -1.73736,1.06919 -2.939873,-0.40101 -6.104538,2.90008 1.006142,2.06809 -3.590478,3.40186 4.535638,6.04769 -2.17351,4.53564 -8.882663,-3.49643 -3.530533,3.49643 c 0.0057,0.41118 -0.845627,2.4188 -1.052132,2.82515 -0.472469,0.89769 -0.377828,1.18118 -0.472321,1.65365 -0.09449,0.47248 -0.09464,4.39435 0.141592,4.77232 0.236236,0.37798 0.283334,-2.3e-4 0.803053,0.70848 0.519715,0.7087 1.417333,3.26033 1.559078,4.01629 0.14174,0.75595 0.708705,8.36251 0.992188,8.97671 0.283479,0.61421 0.566888,0.99219 0.566888,0.99219 0,0 -0.424781,-5.4334 0.23668,-6.61458 0.661459,-1.18117 1.417042,-2.26771 2.503723,-2.4567 1.086678,-0.18899 4.535715,-0.47264 5.622396,0.047 1.086678,0.51971 2.55134,2.64598 3.638021,4.48861 0.760621,1.28976 3.189927,7.10728 4.751646,10.88358 l 19.226734,-0.87023 -4.276225,-28.99875 H 85.927 l -2.40502,-19.77812 z m -31.320568,13.3258 -8.235672,3.91294 1.243335,9.50743 -4.818827,0.37827 -0.189137,1.41749 -4.157885,0.28318 0.09457,1.22835 -1.793689,0.81597 2.271696,20.98115 17.97513,-0.81339 c 0.05019,-0.35131 0.103055,-0.70571 0.161232,-1.05678 0.296855,-1.79147 -1.510945,-2.58685 -1.416452,-5.13819 0.02767,-1.91657 0.05219,-3.18636 0.05219,-3.18636 0,0 -0.619088,-7.01943 0.04237,-9.28729 0.661459,-2.26786 0.756026,-1.84227 0.756026,-1.84227 0,0 0.802979,-0.75588 1.039215,-0.89762 0.236235,-0.14174 0.189134,-3.68556 0.189134,-3.68556 0,0 -0.129003,-0.57547 -0.645953,-1.03663 l -2.610694,2.58589 0.01601,-5.16196 c -0.692888,-0.96796 -0.532466,-1.24446 0.0026,-0.95963 l 0.0016,-0.46819 c -0.699735,-0.78301 -0.722572,-1.29048 0.0031,-0.9374 l 0.0099,-0.46674 c -0.695015,-0.56301 -0.38876,-0.90536 -0.0057,-0.87921 z m 7.333919,6.86005 -0.994254,0.98443 c 0.262049,-0.18722 0.541266,-0.4437 0.842325,-0.75499 0.05768,-0.0905 0.102103,-0.15453 0.151929,-0.22944 z"
           id="path946"
           inkscape:connector-curvature="0"
           sodipodi:nodetypes="ccccccccccccscccccccccccccccccccccccccccccscccccccccccccc" />
        <path
           sodipodi:nodetypes="ccccscccccssccscsccscscc"
           inkscape:connector-curvature="0"
           id="path962"
           d="m 56.406988,192.81975 c 0.14174,0.75595 0.708705,8.36272 0.992187,8.97693 0.28348,0.61421 0.566963,0.99219 0.566963,0.99219 0,0 -0.425223,-5.43341 0.236236,-6.61459 0.66146,-1.18117 1.41741,-2.26785 2.50409,-2.45684 1.08668,-0.18899 4.53572,-0.47247 5.6224,0.0472 1.08668,0.51971 2.55134,2.64583 3.63802,4.48846 1.08668,1.84264 5.66964,13.13468 6.09486,14.12686 0.44737,0.89316 -1.47007,1.34729 -2.22061,1.41742 -1.36393,0.10461 -0.0698,0.72539 -0.57269,1.90273 0,0 -0.42759,0.46297 -0.62232,1.92287 -0.13177,0.98793 0.72353,2.53277 1.57299,4.06465 1.53702,2.77179 2.03162,3.9215 2.03162,3.9215 l -25.891367,-0.0945 c 0,0 -0.607431,-2.73914 -0.911532,-5.51169 -0.292978,-2.67113 0.05298,-6.21958 0.05298,-6.21958 0,0 0.212394,-2.39767 0.574088,-4.58042 0.296856,-1.79147 -1.510921,-2.58712 -1.416427,-5.13846 0.02767,-1.91657 0.052,-3.18611 0.052,-3.18611 0,0 -0.862721,-9.31139 0.767909,-11.02072 0.887298,-0.93012 1.517028,-1.49429 1.517028,-1.49429 0.935985,-0.15597 1.446812,-0.36729 2.457816,-0.20322 1.153438,0.18718 1.781881,0.57636 2.953759,4.65965 z"
           style="fill:none;stroke:#000000;stroke-width:0.15874999;stroke-linecap:butt;stroke-linejoin:miter;stroke-miterlimit:4;stroke-dasharray:none;stroke-opacity:1;fill-opacity:1" />
      </g>
    </g>
  </g>
</svg>
