<?xml version="1.0" encoding="UTF-8" standalone="no"?>
<!-- Created with Inkscape (http://www.inkscape.org/) -->

<svg
   xmlns:dc="http://purl.org/dc/elements/1.1/"
   xmlns:cc="http://creativecommons.org/ns#"
   xmlns:rdf="http://www.w3.org/1999/02/22-rdf-syntax-ns#"
   xmlns:svg="http://www.w3.org/2000/svg"
   xmlns="http://www.w3.org/2000/svg"
   xmlns:sodipodi="http://sodipodi.sourceforge.net/DTD/sodipodi-0.dtd"
   xmlns:inkscape="http://www.inkscape.org/namespaces/inkscape"
   width="35"
   height="35"
   viewBox="0 0 9.2604164 9.2604169"
   version="1.1"
   id="svg2052"
   inkscape:version="0.92.4 5da689c313, 2019-01-14"
   sodipodi:docname="spoti.svg">
  <defs
     id="defs2046" />
  <sodipodi:namedview
     id="base"
     pagecolor="#ffffff"
     bordercolor="#666666"
     borderopacity="1.0"
     inkscape:pageopacity="0.0"
     inkscape:pageshadow="2"
     inkscape:zoom="1.4"
     inkscape:cx="385.99237"
     inkscape:cy="193.34312"
     inkscape:document-units="mm"
     inkscape:current-layer="layer1"
     showgrid="false"
     units="px"
     inkscape:window-width="1920"
     inkscape:window-height="1025"
     inkscape:window-x="0"
     inkscape:window-y="0"
     inkscape:window-maximized="1" />
  <metadata
     id="metadata2049">
    <rdf:RDF>
      <cc:Work
         rdf:about="">
        <dc:format>image/svg+xml</dc:format>
        <dc:type
           rdf:resource="http://purl.org/dc/dcmitype/StillImage" />
        <dc:title></dc:title>
      </cc:Work>
    </rdf:RDF>
  </metadata>
  <g
     inkscape:label="Layer 1"
     inkscape:groupmode="layer"
     id="layer1"
     transform="translate(0,-287.73955)">
    <g
       style="display:inline"
       id="g4444"
       transform="matrix(0.02078841,0,0,0.02078841,1.4599758,289.19953)">
      <g
         id="g4411">
        <path
           d="M 152.441,0 C 68.385,0 0,68.39 0,152.453 0,236.568 68.385,305 152.441,305 236.562,305 305,236.568 305,152.453 305,68.39 236.562,0 152.441,0 Z M 75.08,208.47 c 17.674,-5.38 35.795,-8.108 53.857,-8.108 30.676,0 60.96,7.774 87.592,22.49 1.584,0.863 3.024,3.717 3.67,7.27 0.646,3.552 0.389,7.205 -0.648,9.105 -1.309,2.438 -3.965,4.014 -6.768,4.014 -1.389,0 -2.61,-0.312 -3.831,-0.972 -24.448,-13.438 -52.116,-20.542 -80.015,-20.542 -16.855,0 -33.402,2.495 -49.167,7.409 -0.768,0.233 -1.558,0.352 -2.348,0.352 -3.452,0.001 -6.448,-2.198 -7.453,-5.461 -1.357,-4.461 1.45,-14.36 5.111,-15.557 z m -6.65,-56.167 c 19.699,-5.355 40.057,-8.071 60.508,-8.071 36.765,0 73.273,8.896 105.601,25.739 2.266,1.15 3.936,3.1 4.701,5.49 0.776,2.421 0.542,5.024 -0.669,7.347 -2.885,5.646 -6.257,9.44 -8.393,9.44 -1.514,0 -2.975,-0.363 -4.43,-1.09 -30.019,-15.632 -62.59,-23.558 -96.811,-23.558 -19.035,0 -37.71,2.503 -55.489,7.435 -0.827,0.224 -1.676,0.337 -2.521,0.337 -4.277,10e-4 -8.046,-2.888 -9.162,-7.013 -1.429,-5.365 1.836,-14.743 6.665,-16.056 z m -1.703,-36.697 c -0.903,0.223 -1.826,0.335 -2.744,0.335 -5.169,10e-4 -9.648,-3.492 -10.892,-8.487 -1.559,-6.323 2.397,-13.668 8.126,-15.111 22.281,-5.473 45.065,-8.248 67.72,-8.248 43.856,0 85.857,9.86 124.851,29.312 2.708,1.336 4.727,3.642 5.687,6.493 0.96,2.854 0.748,5.926 -0.592,8.64 -1.826,3.655 -5.772,7.59 -10.121,7.59 -1.677,0 -3.399,-0.393 -4.924,-1.109 -35.819,-17.921 -74.477,-27.008 -114.9,-27.008 -20.774,10e-4 -41.704,2.555 -62.211,7.593 z"
           id="path4409"
           inkscape:connector-curvature="0" />
      </g>
      <g
         id="g4413" />
      <g
         id="g4415" />
      <g
         id="g4417" />
      <g
         id="g4419" />
      <g
         id="g4421" />
      <g
         id="g4423" />
      <g
         id="g4425" />
      <g
         id="g4427" />
      <g
         id="g4429" />
      <g
         id="g4431" />
      <g
         id="g4433" />
      <g
         id="g4435" />
      <g
         id="g4437" />
      <g
         id="g4440" />
      <g
         id="g4442" />
    </g>
  </g>
</svg>
