<?xml version="1.0" encoding="utf-8"?>
<!-- Svg Vector Icons : http://www.onlinewebfonts.com/icon -->
<!DOCTYPE svg PUBLIC "-//W3C//DTD SVG 1.1//EN" "http://www.w3.org/Graphics/SVG/1.1/DTD/svg11.dtd">
<svg version="1.1" xmlns="http://www.w3.org/2000/svg" xmlns:xlink="http://www.w3.org/1999/xlink" x="0px" y="0px" viewBox="0 0 1000 1000" enable-background="new 0 0 1000 1000" xml:space="preserve">
<metadata> Svg Vector Icons : http://www.onlinewebfonts.com/icon </metadata>
<g><g><g id="_x34_99._Up"><g><path d="M924.3,255C789,20.7,489.3-59.6,255,75.7C20.7,211-59.6,510.6,75.7,745C211,979.3,510.6,1059.6,744.9,924.3C979.3,789,1059.6,489.3,924.3,255z M696,839.4c-187.4,108.2-427.2,44-535.4-143.4C52.4,508.5,116.6,268.8,304,160.6c187.4-108.2,427.2-44,535.4,143.4C947.6,491.5,883.4,731.2,696,839.4z M534.6,387.7c-9.6-9.6-22.1-14.4-34.6-14.4c-12.5,0-25.1,4.8-34.6,14.4L326.8,526.2c-19.1,19.1-19.1,50.2,0,69.3v0c19.1,19.1,50.2,19.1,69.3,0L500,491.6l103.9,103.9c19.1,19.1,50.2,19.1,69.3,0v0c19.1-19.1,19.1-50.2,0-69.3L534.6,387.7z"/></g></g></g><g></g><g></g><g></g><g></g><g></g><g></g><g></g><g></g><g></g><g></g><g></g><g></g><g></g><g></g><g></g></g>
</svg>